<svg width="74" height="74" viewBox="0 0 74 74" fill="none" xmlns="http://www.w3.org/2000/svg">
<g clip-path="url(#clip0)">
<path d="M30.5418 49.1993L30.8913 48.8499C31.51 49.1661 32.1536 49.4329 32.8166 49.6482V50.1411C32.8166 51.3645 33.8118 52.3598 35.0353 52.3598H38.8206C40.0439 52.3598 41.0393 51.3645 41.0393 50.1411V49.648C41.6999 49.433 42.3432 49.1661 42.964 48.8493L43.314 49.1993C44.1741 50.0594 45.5786 50.0612 46.4488 49.1993L49.128 46.52C49.9879 45.6599 49.9895 44.2554 49.128 43.3854L48.7783 43.0359C49.0944 42.4173 49.3614 41.7736 49.5767 41.1105H50.0696C51.2909 41.1105 52.2842 40.1153 52.2842 38.8918V35.1065C52.2842 33.8831 51.2907 32.8878 50.0696 32.8878H49.5764C49.3615 32.2272 49.0944 31.5837 48.7778 30.9631L49.128 30.6128C49.9879 29.7527 49.9895 28.3481 49.1272 27.4777L46.4488 24.8032C46.0299 24.3843 45.473 24.154 44.88 24.154C44.8782 24.154 44.8764 24.154 44.8747 24.154C44.2818 24.1553 43.7262 24.3872 43.3158 24.8016L42.9657 25.1501C42.3444 24.8328 41.7005 24.5656 41.0393 24.3504V23.8572C41.0393 22.6361 40.044 21.6426 38.8206 21.6426H35.0353C33.812 21.6426 32.8166 22.6361 32.8166 23.8572V24.3501C32.1531 24.5656 31.5087 24.8328 30.8896 25.1493L30.5453 24.8067C30.128 24.3856 29.5701 24.1538 28.9744 24.1538C28.3786 24.1538 27.8207 24.3856 27.4078 24.8025L24.7243 27.4818C23.8665 28.348 23.8681 29.7525 24.7279 30.6128L25.0781 30.963C24.7614 31.5837 24.4943 32.227 24.2794 32.8877H23.7863C22.5651 32.8877 21.5718 33.8829 21.5718 35.1064V38.8917C21.5718 40.1151 22.5653 41.1104 23.7863 41.1104H24.2791C24.4945 41.7735 24.7614 42.4171 25.0775 43.0358L24.7243 43.389C23.8665 44.2552 23.8681 45.6598 24.7279 46.52L27.4071 49.1992C28.2672 50.0594 29.6719 50.0612 30.5418 49.1993ZM26.2609 44.9183L27.1868 43.9924C27.5376 43.6417 27.6054 43.0974 27.3516 42.6713C26.8125 41.7665 26.4059 40.7865 26.1433 39.7584C26.0207 39.2784 25.5884 38.9427 25.0931 38.9427H23.7864C23.7643 38.9427 23.7397 38.9217 23.7397 38.8918V35.1065C23.7397 35.0792 23.7655 35.0557 23.7864 35.0557H25.0931C25.5886 35.0557 26.0209 34.7199 26.1433 34.2399C26.4043 33.2185 26.811 32.2379 27.3526 31.3253C27.6054 30.8992 27.5372 30.3561 27.187 30.0057L26.2611 29.08C26.2461 29.065 26.2452 29.027 26.2604 29.0115L28.9437 26.3323C28.9579 26.3179 28.9861 26.3128 29.0107 26.3375L29.9365 27.2593C30.2877 27.6088 30.8309 27.6759 31.2561 27.4224C32.161 26.8831 33.1411 26.4766 34.169 26.2141C34.6488 26.0915 34.9846 25.6592 34.9846 25.1639V23.8572C34.9846 23.8341 35.0103 23.8104 35.0354 23.8104H38.8207C38.8459 23.8104 38.8716 23.8341 38.8716 23.8572V25.1639C38.8716 25.6592 39.2073 26.0915 39.6872 26.2141C40.7084 26.475 41.6891 26.8818 42.6018 27.4234C43.027 27.6757 43.5691 27.6081 43.9198 27.2593L44.8508 26.3323C44.8539 26.3291 44.8614 26.3215 44.88 26.3215H44.8802C44.9017 26.3215 44.9123 26.3319 44.9167 26.3364L47.5916 29.0072C47.6112 29.027 47.6102 29.0648 47.5952 29.0797L46.6693 30.0056C46.319 30.3559 46.2509 30.8991 46.5037 31.3252C47.0453 32.2377 47.452 33.2182 47.713 34.2398C47.8356 34.7198 48.2678 35.0555 48.7632 35.0555H50.0699C50.091 35.0555 50.1167 35.0791 50.1167 35.1064V38.8917C50.1167 38.9217 50.092 38.9425 50.0699 38.9425H48.7632C48.2677 38.9425 47.8354 39.2783 47.713 39.7583C47.4504 40.7863 47.0438 41.7664 46.5047 42.6711C46.2508 43.0974 46.3187 43.6415 46.6695 43.9923L47.5916 44.9144C47.6112 44.9342 47.6102 44.9721 47.5952 44.987L44.9198 47.6625C44.8997 47.6826 44.8624 47.6812 44.8474 47.6661L43.9215 46.7403C43.571 46.3899 43.0279 46.3217 42.6019 46.5746C41.6892 47.1162 40.7086 47.5231 39.6875 47.7839C39.2075 47.9065 38.8717 48.3388 38.8717 48.8341V50.1409C38.8717 50.1652 38.8451 50.1918 38.8209 50.1918H35.0356C35.0113 50.1918 34.9847 50.1652 34.9847 50.1409V48.8341C34.9847 48.3388 34.649 47.9064 34.169 47.7839C33.1412 47.5215 32.1611 47.1149 31.2562 46.5757C31.084 46.4729 30.8923 46.4229 30.7018 46.4229C30.4214 46.4229 30.1439 46.5314 29.9349 46.7404L29.0128 47.6627C28.9926 47.6828 28.9554 47.6813 28.9404 47.6663L26.2609 44.9874C26.2461 44.9724 26.245 44.9345 26.2609 44.9183Z" fill="white"/>
<path d="M30.97 38.6388L34.5791 41.867C34.7784 42.0454 35.0359 42.1431 35.3017 42.1431C35.3269 42.1431 35.352 42.1422 35.3772 42.1405C35.6691 42.1201 35.9405 41.9823 36.1296 41.7587L42.9872 33.6433C43.3736 33.186 43.3161 32.5022 42.8588 32.1158C42.4017 31.7294 41.7176 31.7868 41.3313 32.2441L35.1932 39.508L32.4151 37.023C31.969 36.6238 31.2836 36.6623 30.8847 37.1083C30.4856 37.5545 30.5237 38.2397 30.97 38.6388Z" fill="white"/>
<path d="M22.3185 56.4715C16.1474 51.8145 12.6096 44.72 12.6096 36.9993C12.6096 25.14 21.173 15.0289 32.7227 12.9904V15.6395C32.7227 15.6461 32.7227 15.6529 32.7228 15.6597C32.7436 16.7745 33.2869 17.7205 34.1762 18.1902C35.0444 18.6489 36.0796 18.5839 36.9449 18.0167C36.9608 18.0062 36.9765 17.9954 36.9919 17.9841L45.7675 11.542C46.6564 10.9893 47.1648 10.1547 47.1648 9.24471C47.1647 8.33445 46.6559 7.49964 45.7666 6.94695L36.9914 0.5091C36.9761 0.497826 36.9605 0.487131 36.9446 0.47658C36.0797 -0.090705 35.0444 -0.155455 34.1759 0.303287C33.2866 0.773014 32.7435 1.71897 32.7227 2.83374C32.7225 2.84039 32.7225 2.84718 32.7225 2.85383V4.88753C26.1023 5.75775 20.0162 8.60357 15.0686 13.1537C14.628 13.559 14.5993 14.2446 15.0046 14.6853C15.4099 15.1258 16.0952 15.1546 16.5362 14.7493C21.3784 10.2962 27.3882 7.59243 33.9158 6.93077C34.4693 6.87469 34.8905 6.40858 34.8905 5.85242V2.86525C34.8983 2.55104 35.0067 2.31632 35.1885 2.22006C35.3459 2.13696 35.5447 2.15806 35.737 2.27729L44.5215 8.7218C44.5479 8.74117 44.5751 8.75923 44.6032 8.77614C44.8461 8.92241 44.9969 9.10177 44.9969 9.24457C44.9969 9.38722 44.8458 9.56673 44.6032 9.71299C44.5747 9.73019 44.5469 9.74855 44.5203 9.7682L35.7369 16.216C35.5444 16.3353 35.3458 16.3562 35.1887 16.2731C35.0066 16.177 34.8982 15.9421 34.8905 15.6279V11.7312C34.8905 11.4203 34.757 11.1245 34.524 10.9187C34.2911 10.713 33.9813 10.6167 33.6723 10.6558C20.4287 12.3101 10.4417 23.6354 10.4417 36.9992C10.4417 41.2442 11.414 45.3005 13.3316 49.0554C15.1597 52.6349 17.8286 55.8073 21.0501 58.2298C21.0745 58.2482 21.0996 58.2655 21.1254 58.2816C22.0852 58.884 22.6056 59.701 22.5527 60.5228C22.5146 61.1151 22.1702 61.6311 21.6538 61.8693C20.9171 62.2089 19.9155 61.9706 18.9055 61.2147C11.5202 55.6908 7.10438 47.2514 6.78843 38.058V35.9399C7.00638 29.5561 9.19242 23.5162 13.1108 18.4712C13.4781 17.9984 13.3925 17.3175 12.9197 16.9503C12.4471 16.5831 11.7659 16.6684 11.3988 17.1415C7.19485 22.5542 4.85113 29.0357 4.62118 35.8853C4.62075 35.8973 4.62061 35.9094 4.62061 35.9216V38.0764C4.62061 38.0885 4.62075 38.1008 4.62118 38.1129C4.95433 47.9743 9.68744 57.0273 17.607 62.9506C18.7003 63.7684 19.853 64.189 20.935 64.189C21.5032 64.189 22.0518 64.0731 22.5618 63.8376C23.8018 63.2659 24.6272 62.0488 24.7162 60.6616C24.8206 59.0346 23.9473 57.5096 22.3185 56.4715Z" fill="white"/>
<path d="M65.9787 22.5379C63.8298 18.2388 60.685 14.4019 56.8828 11.4403C55.3649 10.1758 53.6363 9.78051 52.138 10.3563C50.8356 10.8568 49.9055 12.0293 49.7107 13.416C49.4975 14.9342 50.1787 16.4109 51.5834 17.47C57.8026 22.1212 61.3695 29.2392 61.3695 36.9991C61.3695 48.8622 52.8058 58.9736 41.2562 61.0086V58.3589C41.2562 58.3523 41.2562 58.3455 41.2561 58.3388C41.2354 57.2275 40.6933 56.2833 39.8058 55.8131C38.9381 55.3534 37.9029 55.4158 37.0365 55.9802C37.0197 55.9912 37.0034 56.0026 36.987 56.0143L28.2117 62.4564C27.3228 63.0091 26.8142 63.8437 26.8142 64.7538C26.8144 65.6638 27.3228 66.4983 28.2115 67.051L36.987 73.4931C37.0031 73.5049 37.0197 73.5163 37.0365 73.5273C37.518 73.8412 38.0518 73.9999 38.5802 73.9998C39.0021 73.9998 39.4205 73.8986 39.8058 73.6944C40.6933 73.2241 41.2355 72.28 41.2561 71.1687C41.2562 71.1621 41.2562 71.1553 41.2562 71.1486V69.1109C47.6367 68.2726 53.549 65.5833 58.4099 61.2981C58.8588 60.9022 58.902 60.2173 58.5062 59.7682C58.1104 59.3192 57.4255 59.276 56.9763 59.672C52.2108 63.8732 46.3624 66.4305 40.0632 67.0674C39.5097 67.1233 39.0884 67.5894 39.0884 68.1457V71.1368C39.0807 71.4488 38.9725 71.6827 38.7908 71.7789C38.6328 71.8626 38.4334 71.8425 38.2409 71.7242L29.4586 65.2772C29.4318 65.2575 29.4042 65.2392 29.3759 65.2221C29.1329 65.0759 28.9822 64.8965 28.9822 64.7537C28.9822 64.611 29.1332 64.4315 29.3759 64.2853C29.4044 64.2681 29.4321 64.2497 29.4587 64.2301L38.2407 57.7832C38.4335 57.6649 38.633 57.6449 38.7908 57.7285C38.9726 57.8247 39.0809 58.0587 39.0884 58.3706V62.267C39.0884 62.5779 39.2218 62.8736 39.4548 63.0794C39.6878 63.2851 39.997 63.3811 40.3063 63.3426C53.5502 61.6925 63.5371 50.3672 63.5371 36.9989C63.5371 32.7442 62.5608 28.6794 60.635 24.9177C58.798 21.3291 56.1168 18.1534 52.885 15.7364C52.1203 15.1598 51.7552 14.4428 51.8571 13.7175C51.9426 13.1104 52.348 12.5977 52.9154 12.3796C53.6727 12.0887 54.5928 12.3496 55.506 13.1148C55.5159 13.1232 55.5262 13.1315 55.5365 13.1394C62.9558 18.9116 67.2111 27.608 67.2111 36.9989C67.2111 43.9857 64.7732 50.7973 60.3463 56.1789C59.9659 56.6413 60.0324 57.3244 60.4948 57.7046C60.9571 58.0849 61.6402 58.0185 62.0204 57.5562C66.7657 51.7875 69.379 44.4868 69.379 36.9989C69.3791 31.9171 68.235 27.0516 65.9787 22.5379Z" fill="white"/>
</g>
<defs>
<clipPath id="clip0">
<rect width="74" height="74" fill="white"/>
</clipPath>
</defs>
</svg>
