<svg width="70" height="70" viewBox="0 0 70 70" fill="none" xmlns="http://www.w3.org/2000/svg">
<g clip-path="url(#clip0)">
<path d="M65.8812 21.6934C65.6292 22.6211 65.1501 23.4478 64.4927 24.1138L65.2868 25.5002C66.2919 27.2546 65.7023 29.5013 63.9763 30.5385C63.9581 30.5502 63.9394 30.5614 63.9207 30.5721L56.2287 34.9792C56.2292 35.0267 56.2303 35.0737 56.2308 35.1207L63.9869 39.6415C64.0099 39.6548 64.0323 39.6687 64.0537 39.6837C65.7627 40.7379 66.3299 42.982 65.3146 44.7236L64.5098 46.1036C65.1624 46.7744 65.6356 47.6043 65.8807 48.5341C66.2556 49.9574 66.0537 51.4415 65.3125 52.7126C64.042 54.8915 61.4961 55.8736 59.166 55.2686L58.4514 56.4931C57.4228 58.2577 55.1499 58.8569 53.3827 57.8288L51.8729 56.9487C51.3837 56.664 51.2182 56.036 51.5033 55.5468C51.7885 55.0576 52.4166 54.892 52.9058 55.1772L54.415 56.0568C55.2044 56.5161 56.2201 56.2486 56.68 55.4603L57.3048 54.389C56.2816 53.645 55.551 52.5812 55.2241 51.3416C55.2231 51.3374 55.2225 51.3336 55.2215 51.3293L54.7942 52.0621L54.6409 52.3259C54.5042 52.5609 54.2794 52.7323 54.0166 52.8017C53.7533 52.8717 53.4735 52.8333 53.238 52.6965L49.6176 50.5865C49.0291 51.1446 48.409 51.6695 47.7601 52.1577L49.3938 53.0864C49.8857 53.3662 50.0582 53.9922 49.7783 54.4846C49.498 54.977 48.872 55.1489 48.3802 54.8691L45.8568 53.4346C45.7216 53.5152 45.586 53.5943 45.4493 53.6717V62.2727C45.4493 62.2957 45.4487 62.3181 45.4471 62.3411C45.4033 64.3518 43.7483 65.9775 41.728 65.9775H40.1279C39.4769 68.2953 37.346 70 34.8231 70C32.3002 70 30.1693 68.2953 29.5183 65.9775H28.1009C26.0571 65.9775 24.394 64.3155 24.394 62.2727V53.535C24.3033 53.4821 24.213 53.4287 24.1233 53.3748L21.9523 54.6186C21.461 54.9001 20.8346 54.7302 20.5526 54.2389C20.2711 53.7476 20.4415 53.1211 20.9328 52.8397L22.2365 52.0925C21.5849 51.5969 20.9627 51.0655 20.3731 50.4994L16.772 52.563C16.2817 52.8439 15.6563 52.6752 15.3743 52.186L14.7976 51.1809C14.7965 51.1846 14.796 51.1884 14.7949 51.1926C14.459 52.43 13.7209 53.4885 12.6918 54.2245L13.3081 55.3001C13.762 56.0921 14.7767 56.3671 15.5693 55.9132L17.5474 54.7794C18.0388 54.4979 18.6652 54.6677 18.9467 55.1591C19.2281 55.6509 19.0583 56.2774 18.5669 56.5588L16.5888 57.6926C14.8147 58.7084 12.5449 58.0927 11.5291 56.3196L10.8242 55.0902C8.48981 55.6776 5.9509 54.6774 4.69694 52.4888C3.96474 51.2119 3.77408 49.7266 4.15967 48.3066C4.41121 47.3784 4.8908 46.5522 5.54822 45.8857L4.75408 44.5004C4.43097 43.9375 4.26061 43.2987 4.26061 42.6525C4.26061 41.3291 4.97144 40.0949 6.11966 39.4289L13.8528 34.9973C13.8539 34.8547 13.8566 34.7121 13.8608 34.5701L6.2708 30.3697C6.24143 30.3532 6.21259 30.3355 6.18535 30.3163C4.4753 29.2626 3.9076 27.018 4.92338 25.2775L5.7282 23.8964C5.07558 23.2256 4.60241 22.3957 4.35727 21.4654C3.98237 20.0426 4.18424 18.5585 4.92551 17.2874C5.9477 15.5331 7.79714 14.5541 9.69465 14.5541C10.155 14.5541 10.6175 14.6124 11.0725 14.7304L11.7866 13.5063C12.2848 12.6513 13.0864 12.0414 14.044 11.7893C14.3586 11.7071 14.6774 11.666 14.9941 11.666C15.6414 11.666 16.2806 11.8369 16.8553 12.1717L24.394 16.5649V7.72835C24.394 7.70538 24.3946 7.68242 24.3967 7.65999C24.44 5.64819 26.095 4.02199 28.1154 4.02199H29.7159C30.3664 1.70471 32.4973 0 35.0202 0C37.5431 0 39.674 1.70471 40.325 4.02199H41.7424C43.7862 4.02199 45.4493 5.68504 45.4493 7.72835V9.33907C45.4493 9.9057 44.99 10.3645 44.4239 10.3645C43.8572 10.3645 43.3985 9.9057 43.3985 9.33907V7.72835C43.3985 6.81564 42.6551 6.07277 41.7424 6.07277H40.5018C40.3688 7.37213 39.7829 8.53905 38.9044 9.41277H40.0638C40.6299 9.41277 41.0892 9.87152 41.0892 10.4382V14.9162C41.8791 15.1517 42.6497 15.4321 43.3985 15.7547V13.783C43.3985 13.2163 43.8578 12.7576 44.4239 12.7576C44.9905 12.7576 45.4493 13.2163 45.4493 13.783V16.7731C45.4845 16.7929 45.5198 16.8121 45.5545 16.8324L53.4521 12.3074C54.0321 11.9752 54.6644 11.8176 55.2893 11.8176C56.5758 11.8176 57.8282 12.4868 58.5118 13.6804L59.2162 14.9093C59.6584 14.7982 60.1076 14.7421 60.5546 14.7421C62.4665 14.7421 64.3271 15.7371 65.344 17.5112C66.0756 18.7876 66.2668 20.2734 65.8812 21.6934ZM62.8574 28.8177C62.8708 28.8097 62.8836 28.8017 62.8969 28.7937C63.6889 28.335 63.9629 27.3144 63.5074 26.5197L62.8003 25.2855C61.6067 25.8169 60.3025 25.8884 59.1078 25.5611L59.7818 26.7371C59.9169 26.9726 59.9527 27.253 59.8816 27.5152C59.8101 27.7779 59.6376 28.0012 59.4015 28.1363L55.6498 30.2853C55.8388 31.0741 55.9836 31.8806 56.0813 32.7003L62.8574 28.8177ZM35.041 16.0863C24.487 16.0863 15.9004 24.6708 15.9004 35.2227C15.9004 45.7741 24.487 54.3585 35.041 54.3585C45.4402 54.3585 53.9285 46.024 54.1752 35.6852V35.6708C54.179 35.5218 54.1811 35.3722 54.1811 35.2227C54.1811 24.6708 45.5951 16.0863 35.041 16.0863ZM12.7083 26.7013L15.0876 28.0872C15.4513 27.0741 15.8892 26.0957 16.396 25.16L15.9207 24.8828C15.4315 24.5976 15.2659 23.9701 15.5511 23.4809C15.7412 23.1535 16.0852 22.9714 16.4377 22.9714C16.6128 22.9714 16.7907 23.0163 16.953 23.1108L17.4598 23.4061C18.0238 22.5698 18.6465 21.7757 19.321 21.0296L16.8537 19.5914L12.7083 26.7013ZM39.0384 56.0296C37.9997 56.2288 36.9343 56.3516 35.8485 56.3922V56.6779C35.8485 57.244 35.3892 57.7033 34.8231 57.7033C34.257 57.7033 33.7977 57.244 33.7977 56.6779V56.3719C32.7793 56.3126 31.7801 56.1823 30.8054 55.9837V58.5365H39.0384V56.0296ZM52.7237 23.5605L53.2732 23.2459C53.434 23.1535 53.6091 23.1097 53.7822 23.1097C54.1379 23.1097 54.4834 23.2951 54.673 23.6256C54.9544 24.117 54.7841 24.7434 54.2927 25.0249L53.7715 25.3239C54.2708 26.2639 54.7008 27.2455 55.0559 28.2623L57.4923 26.8668L53.3987 19.726L50.8833 21.1679C51.5514 21.9199 52.1666 22.7193 52.7237 23.5605ZM57.2071 50.8188C57.4426 51.7123 58.0119 52.4605 58.8098 52.9256C59.3567 53.2439 59.9553 53.3956 60.5465 53.3956C61.738 53.3956 62.8991 52.7809 63.541 51.6797C64.0062 50.8818 64.1327 49.9504 63.8972 49.0569C63.6617 48.1635 63.0929 47.4158 62.2945 46.9501C60.6464 45.9904 58.5246 46.549 57.5638 48.1966C57.0981 48.9944 56.9716 49.9258 57.2071 50.8188ZM60.5615 44.4299C61.3252 44.4299 62.0958 44.5917 62.8243 44.9223L63.5426 43.6907C64.004 42.8998 63.7375 41.8776 62.9482 41.4119C62.9316 41.4023 62.9156 41.3921 62.9001 41.3815L56.1176 37.4284C56.0311 38.2572 55.8965 39.0717 55.7171 39.8695L59.448 42.0448C59.683 42.1815 59.8539 42.4063 59.9233 42.6691C59.9927 42.9324 59.9548 43.2122 59.8176 43.4467L59.135 44.6178C59.5986 44.4939 60.0782 44.4299 60.5615 44.4299ZM53.3843 50.4081L57.5291 43.2998L55.1488 41.9118C54.807 42.9361 54.3894 43.9262 53.9018 44.8747L54.3173 45.1172C54.8065 45.4024 54.9721 46.0299 54.6869 46.5191C54.4017 47.0083 53.7742 47.1738 53.285 46.8887L52.8775 46.6515C52.3327 47.4975 51.7298 48.3034 51.074 49.0617L53.3843 50.4081ZM43.3969 62.2674C43.3969 62.2508 43.3974 62.2348 43.3985 62.2188V54.6902C42.6497 55.0127 41.8791 55.2931 41.0887 55.5286V59.5618C41.0887 60.1279 40.6299 60.5872 40.0633 60.5872H38.7068C39.5848 61.4604 40.1717 62.6273 40.3042 63.9267H41.728C42.6439 63.9267 43.3926 63.1828 43.3969 62.2674ZM34.8231 67.9492C36.7308 67.9492 38.2822 66.3978 38.2822 64.4907C38.2822 62.5841 36.7308 61.0326 34.8231 61.0326C32.9155 61.0326 31.364 62.5841 31.364 64.4907C31.364 66.3978 32.9155 67.9492 34.8231 67.9492ZM26.4448 62.2727C26.4448 63.1849 27.1882 63.9267 28.1009 63.9267H29.3416C29.4745 62.6273 30.0609 61.4604 30.9395 60.5872H29.78C29.2134 60.5872 28.7546 60.1279 28.7546 59.5618V55.4576C27.9637 55.2114 27.193 54.9193 26.4448 54.586V62.2727ZM16.6411 50.274L18.9258 48.9651C18.2743 48.2019 17.6756 47.3928 17.1362 46.5426L16.7672 46.7541C16.2758 47.0355 15.6494 46.8657 15.3679 46.3744C15.086 45.883 15.2563 45.256 15.7477 44.9746L16.122 44.7604C15.6403 43.8087 15.2286 42.8165 14.8932 41.7895L12.5481 43.1326L16.6411 50.274ZM6.47588 51.4693C7.11461 52.5828 8.2826 53.2071 9.48316 53.2071C10.0658 53.2071 10.6565 53.0597 11.1975 52.7499C11.9991 52.2906 12.5738 51.5467 12.8157 50.6554C13.0576 49.7635 12.938 48.8316 12.4787 48.0299C11.5302 46.3754 9.41213 45.8008 7.75709 46.7493C6.95547 47.2086 6.38082 47.9525 6.13889 48.8438C5.89696 49.7352 6.01659 50.6676 6.47588 51.4693ZM6.31139 42.6525C6.31139 42.9414 6.38776 43.2272 6.53303 43.4803L7.24225 44.7172C7.96003 44.3978 8.71786 44.2413 9.46821 44.2413C9.96488 44.2413 10.4583 44.3102 10.9342 44.4411L10.2591 43.2629C10.124 43.0269 10.0877 42.747 10.1593 42.4843C10.2303 42.2221 10.4028 41.9988 10.6389 41.8632L14.3372 39.7451C14.1631 38.9472 14.0333 38.1328 13.9522 37.3045L7.14399 41.2057C6.63022 41.5038 6.31139 42.0581 6.31139 42.6525ZM7.28979 28.5881C7.29886 28.5934 7.30848 28.5993 7.31809 28.6052L14.0483 32.3302C14.1514 31.5751 14.295 30.8327 14.4761 30.1048L10.79 27.9568C10.555 27.8196 10.3841 27.5953 10.3147 27.332C10.2453 27.0692 10.2832 26.7894 10.4204 26.5544L11.1035 25.3827C9.9056 25.7021 8.60196 25.6209 7.41208 25.0809L6.69484 26.3114C6.23395 27.1013 6.50045 28.1224 7.28979 28.5881ZM6.69698 18.3203C6.23182 19.1187 6.10525 20.0496 6.34023 20.9431C6.57575 21.8365 7.14506 22.5848 7.94347 23.0499C8.48981 23.3682 9.08849 23.5199 9.67969 23.5199C10.8712 23.5199 12.0322 22.9052 12.6742 21.804C13.1393 21.0061 13.2664 20.0742 13.0309 19.1812C12.7954 18.2877 12.2261 17.5395 11.4282 17.0744C9.77956 16.1141 7.65775 16.6733 6.69698 18.3203ZM15.8224 13.9442C15.44 13.721 14.9941 13.6601 14.5663 13.7728C14.1385 13.8855 13.7807 14.1579 13.558 14.5392L12.9332 15.611C13.9564 16.355 14.687 17.4188 15.0139 18.6584C15.0149 18.6626 15.0155 18.6664 15.0165 18.6707L15.4438 17.9379L15.5971 17.6741C15.7338 17.4386 15.9581 17.2672 16.2214 17.1977C16.3079 17.1748 16.396 17.1635 16.4836 17.1635C16.6636 17.1635 16.8419 17.2111 17 17.3035L20.8191 19.5294C21.4295 18.9756 22.0725 18.4576 22.7443 17.9769L15.8224 13.9442ZM35.0202 2.05078C33.1131 2.05078 31.5611 3.60222 31.5611 5.50934C31.5611 7.41592 33.1131 8.96736 35.0202 8.96736C36.9278 8.96736 38.4798 7.41592 38.4798 5.50934C38.4798 3.60222 36.9278 2.05078 35.0202 2.05078ZM29.5386 6.07277H28.1154C27.1995 6.07277 26.4507 6.81778 26.4464 7.73369C26.4464 7.74971 26.4459 7.76627 26.4448 7.78229V15.8588C27.193 15.5256 27.9637 15.2335 28.7546 14.9873V10.4382C28.7546 9.87152 29.2134 9.41277 29.78 9.41277H31.1365C30.258 8.53905 29.6716 7.37213 29.5386 6.07277ZM39.0384 11.4635H30.8054V14.4612C31.8431 14.2497 32.9085 14.1146 33.9948 14.0617V13.3221C33.9948 12.756 34.4541 12.2967 35.0202 12.2967C35.5868 12.2967 36.0456 12.756 36.0456 13.3221V14.0601C37.0635 14.1077 38.0627 14.2284 39.0384 14.4153V11.4635ZM54.4711 14.0868L47.4888 18.0875C48.1559 18.5735 48.7935 19.0968 49.3992 19.6555L53.2684 17.437C53.4292 17.3451 53.6043 17.3013 53.7774 17.3013C54.1325 17.3013 54.4775 17.4861 54.6676 17.8162L55.2428 18.8197C55.2439 18.8159 55.2444 18.8116 55.2455 18.8079C55.5814 17.5705 56.32 16.512 57.3486 15.7761L56.7323 14.6999C56.2784 13.9079 55.2636 13.6329 54.4711 14.0868ZM63.5645 18.5307C62.6166 16.8762 60.4979 16.3016 58.8434 17.2501C58.0418 17.7094 57.4666 18.4533 57.2247 19.3446C56.9828 20.2365 57.1024 21.169 57.5622 21.9701C58.5107 23.6251 60.6283 24.1998 62.2833 23.2507C63.0849 22.7914 63.6601 22.0475 63.902 21.1562C64.144 20.2648 64.0243 19.3324 63.5645 18.5307Z" fill="white"/>
<path d="M31.1401 43.4825L24.7469 44.377C24.3512 44.4321 23.9576 44.33 23.6388 44.0897C23.3194 43.8489 23.1133 43.4985 23.0582 43.1028L21.9389 35.1074C21.8833 34.7117 21.9853 34.3181 22.2262 33.9987C22.467 33.6799 22.8174 33.4737 23.2131 33.4182L29.6069 32.5236C29.6774 32.514 29.7473 32.5092 29.8173 32.5092C30.1404 32.5092 30.4528 32.6133 30.715 32.8109C31.0339 33.0518 31.24 33.4022 31.2956 33.7984L32.4144 41.7933C32.47 42.1895 32.3679 42.5831 32.1276 42.902C31.8862 43.2208 31.5359 43.427 31.1401 43.4825ZM29.3414 34.6316L24.0468 35.3723L25.0118 42.2691L30.3065 41.5284L29.3414 34.6316Z" fill="white"/>
<path d="M36.7897 44.3146L34.945 48.712C34.7261 49.2343 34.1247 49.48 33.6029 49.261C33.0806 49.0415 32.835 48.4407 33.0539 47.9184L34.8986 43.521C35.063 43.1284 35.4438 42.8918 35.8444 42.8918C35.9768 42.8918 36.1114 42.9175 36.2406 42.972C36.763 43.1915 37.0086 43.7923 36.7897 44.3146Z" fill="white"/>
</g>
<defs>
<clipPath id="clip0">
<rect width="70" height="70" fill="white" transform="matrix(1 0 0 -1 0 70)"/>
</clipPath>
</defs>
</svg>
