<svg width="80" height="38" viewBox="0 0 80 38" fill="none" xmlns="http://www.w3.org/2000/svg">
<path d="M61.2927 37.707C57.4177 37.707 51.1265 36.2523 43.1597 29.3227C42.6715 28.898 42.6199 28.1577 43.0447 27.6694C43.4696 27.1811 44.2097 27.1297 44.698 27.5544C52.1179 34.0086 57.8177 35.3634 61.2927 35.3634C70.3157 35.3633 77.6561 28.0227 77.6561 18.9998C77.6561 9.97704 70.3157 2.63641 61.2927 2.63641C56.6833 2.63641 51.3791 4.9711 45.953 9.38813C41.6 12.9317 38.5447 16.6758 37.9749 17.3925C37.948 17.4263 37.2163 18.3323 35.9907 19.6478L35.8632 19.7969C32.9355 22.9211 25.4096 30.1917 18.7069 30.1917C12.5357 30.1917 7.51489 25.1709 7.51489 18.9997C7.51489 12.8284 12.5357 7.80766 18.7069 7.80766C24.8185 7.80766 31.6199 13.8484 34.9915 17.2823C35.4538 16.7653 35.8432 16.3058 36.1421 15.9316C36.7368 15.1838 39.933 11.2664 44.4733 7.57048C50.4058 2.74126 56.0647 0.292511 61.2927 0.292511C71.608 0.292667 79.9999 8.6847 79.9999 18.9998C79.9999 29.315 71.608 37.707 61.2927 37.707ZM18.7071 10.1516C13.8282 10.1516 9.8588 14.1209 9.8588 18.9998C9.8588 23.8788 13.8282 27.8481 18.7071 27.8481C24.0724 27.8481 30.6057 21.8391 33.3915 18.9998C30.6055 16.1608 24.0722 10.1516 18.7071 10.1516Z" fill="white"/>
<path d="M35.4697 10.5923C27.9748 4.01679 22.2173 2.63647 18.707 2.63647C9.68422 2.63647 2.34375 9.97711 2.34375 18.9999C2.34375 28.0227 9.68422 35.3634 18.7072 35.3634C23.3166 35.3634 28.6208 33.0287 34.0469 28.6116C38.3998 25.068 41.4552 21.324 42.025 20.6073C42.0519 20.5735 44.0841 18.247 44.1292 18.1987C47.0569 15.0745 54.5902 7.80804 61.2928 7.80804C67.4641 7.80804 72.4848 12.8288 72.4848 19.0001C72.4848 25.1713 67.4641 30.1921 61.2928 30.1921C55.1811 30.1921 48.3795 24.1509 45.008 20.7171C44.5455 21.2345 44.1569 21.6937 43.8577 22.0682C43.263 22.816 40.0667 26.7334 35.5264 30.4293C29.5939 35.2585 23.935 37.7073 18.707 37.7073C8.39188 37.7071 0 29.3151 0 18.9999C0 8.68476 8.39188 0.292725 18.7072 0.292725C22.62 0.292725 28.9725 1.77382 37.0155 8.83039C37.502 9.25711 37.5503 9.99757 37.1234 10.4841C36.6966 10.9707 35.9562 11.0191 35.4697 10.5923ZM61.2928 27.8482C66.1717 27.8482 70.1411 23.8788 70.1411 18.9999C70.1411 14.121 66.1717 10.1516 61.2928 10.1516C55.9275 10.1516 49.3942 16.1607 46.6084 18.9999C49.3944 21.839 55.9277 27.8482 61.2928 27.8482Z" fill="white"/>
</svg>
