<svg width="72" height="72" viewBox="0 0 72 72" fill="none" xmlns="http://www.w3.org/2000/svg">
<g clip-path="url(#clip0)">
<path d="M60.3698 37.4211H59.8417C60.2822 35.8987 60.505 34.3259 60.505 32.7282C60.505 31.6827 60.4078 30.6323 60.216 29.606C60.1091 29.0334 59.5572 28.6561 58.9857 28.7628C58.4132 28.8698 58.0356 29.4207 58.1426 29.9933C58.3104 30.8923 58.3956 31.8124 58.3956 32.7282C58.3956 34.5716 58.057 36.3768 57.3893 38.0934C57.263 38.418 57.3051 38.7839 57.5017 39.0712C57.6981 39.3586 58.0241 39.5305 58.3721 39.5305H60.3698C65.6197 39.5305 69.8907 43.8015 69.8907 49.0513C69.8907 54.3012 65.6197 58.5722 60.3698 58.5722H56.652V55.8943C56.652 54.925 55.8635 54.1365 54.8942 54.1365H17.1061C16.1368 54.1365 15.3483 54.925 15.3483 55.8943V58.5722H12.6362C12.0536 58.5722 11.5815 59.0444 11.5815 59.6269C11.5815 60.2094 12.0536 60.6816 12.6362 60.6816H15.3482V65.0713C15.3482 66.0407 16.1367 66.8292 17.106 66.8292H46.4063C46.9889 66.8292 47.461 66.3569 47.461 65.7745C47.461 65.192 46.9889 64.7198 46.4063 64.7198H17.4577V56.2457H54.5426V64.7198H51.3282C50.7456 64.7198 50.2735 65.192 50.2735 65.7745C50.2735 66.3569 50.7456 66.8292 51.3282 66.8292H54.894C55.8634 66.8292 56.6519 66.0407 56.6519 65.0713V60.6816H60.3697C66.7828 60.6816 72 55.4643 72 49.0513C72 42.6384 66.7828 37.4211 60.3698 37.4211Z" fill="white"/>
<path d="M54.8938 39.3341H17.1062C16.1369 39.3341 15.3484 40.1226 15.3484 41.0919V50.2691C15.3484 51.2384 16.1369 52.0269 17.1062 52.0269H54.894C55.8633 52.0269 56.6518 51.2384 56.6518 50.2691V41.0919C56.6516 40.1227 55.8632 39.3341 54.8938 39.3341ZM54.5423 49.9175H17.4578V41.4435H54.5424V49.9175H54.5423Z" fill="white"/>
<path d="M46.4216 46.7352H51.1794C51.762 46.7352 52.2341 46.263 52.2341 45.6805C52.2341 45.0981 51.762 44.6259 51.1794 44.6259H46.4216C45.839 44.6259 45.3669 45.0981 45.3669 45.6805C45.3669 46.263 45.8392 46.7352 46.4216 46.7352Z" fill="white"/>
<path d="M20.8208 47.7548C21.4034 47.7548 21.8755 47.2825 21.8755 46.7001V44.661C21.8755 44.0785 21.4034 43.6063 20.8208 43.6063C20.2382 43.6063 19.7661 44.0785 19.7661 44.661V46.7001C19.7661 47.2825 20.2382 47.7548 20.8208 47.7548Z" fill="white"/>
<path d="M24.8987 47.7548C25.4813 47.7548 25.9534 47.2825 25.9534 46.7001V44.661C25.9534 44.0785 25.4813 43.6063 24.8987 43.6063C24.3161 43.6063 23.844 44.0785 23.844 44.661V46.7001C23.844 47.2825 24.3161 47.7548 24.8987 47.7548Z" fill="white"/>
<path d="M28.9766 47.7548C29.5592 47.7548 30.0312 47.2825 30.0312 46.7001V44.661C30.0312 44.0785 29.5592 43.6063 28.9766 43.6063C28.394 43.6063 27.9219 44.0785 27.9219 44.661V46.7001C27.9219 47.2825 28.394 47.7548 28.9766 47.7548Z" fill="white"/>
<path d="M33.0547 47.7548C33.6373 47.7548 34.1094 47.2825 34.1094 46.7001V44.661C34.1094 44.0785 33.6373 43.6063 33.0547 43.6063C32.4721 43.6063 32 44.0785 32 44.661V46.7001C32 47.2825 32.4721 47.7548 33.0547 47.7548Z" fill="white"/>
<path d="M43.2148 46.7352C43.7973 46.7352 44.2695 46.263 44.2695 45.6805C44.2695 45.0981 43.7973 44.6259 43.2148 44.6259C42.6324 44.6259 42.1602 45.0981 42.1602 45.6805C42.1602 46.263 42.6324 46.7352 43.2148 46.7352Z" fill="white"/>
<path d="M40.4023 46.7352C40.9848 46.7352 41.457 46.263 41.457 45.6805C41.457 45.0981 40.9848 44.6259 40.4023 44.6259C39.8199 44.6259 39.3477 45.0981 39.3477 45.6805C39.3477 46.263 39.8199 46.7352 40.4023 46.7352Z" fill="white"/>
<path d="M37.5898 46.7352C38.1723 46.7352 38.6445 46.263 38.6445 45.6805C38.6445 45.0981 38.1723 44.6259 37.5898 44.6259C37.0074 44.6259 36.5352 45.0981 36.5352 45.6805C36.5352 46.263 37.0074 46.7352 37.5898 46.7352Z" fill="white"/>
<path d="M52.2341 60.4827C52.2341 59.9002 51.762 59.428 51.1794 59.428H46.4216C45.839 59.428 45.3669 59.9002 45.3669 60.4827C45.3669 61.0651 45.839 61.5374 46.4216 61.5374H51.1794C51.762 61.5374 52.2341 61.0651 52.2341 60.4827Z" fill="white"/>
<path d="M19.7661 59.4631V61.5022C19.7661 62.0847 20.2382 62.5569 20.8208 62.5569C21.4034 62.5569 21.8755 62.0847 21.8755 61.5022V59.4631C21.8755 58.8807 21.4034 58.4084 20.8208 58.4084C20.2382 58.4084 19.7661 58.8807 19.7661 59.4631Z" fill="white"/>
<path d="M23.844 59.4631V61.5022C23.844 62.0847 24.3161 62.5569 24.8987 62.5569C25.4813 62.5569 25.9534 62.0847 25.9534 61.5022V59.4631C25.9534 58.8807 25.4813 58.4084 24.8987 58.4084C24.3161 58.4084 23.844 58.8807 23.844 59.4631Z" fill="white"/>
<path d="M27.9219 59.4631V61.5022C27.9219 62.0847 28.394 62.5569 28.9766 62.5569C29.5592 62.5569 30.0312 62.0847 30.0312 61.5022V59.4631C30.0312 58.8807 29.5592 58.4084 28.9766 58.4084C28.394 58.4084 27.9219 58.8807 27.9219 59.4631Z" fill="white"/>
<path d="M32 59.4631V61.5022C32 62.0847 32.4721 62.5569 33.0547 62.5569C33.6373 62.5569 34.1094 62.0847 34.1094 61.5022V59.4631C34.1094 58.8807 33.6373 58.4084 33.0547 58.4084C32.4721 58.4084 32 58.8807 32 59.4631Z" fill="white"/>
<path d="M43.2148 61.5374C43.7973 61.5374 44.2695 61.0652 44.2695 60.4827C44.2695 59.9002 43.7973 59.428 43.2148 59.428C42.6324 59.428 42.1602 59.9002 42.1602 60.4827C42.1602 61.0652 42.6324 61.5374 43.2148 61.5374Z" fill="white"/>
<path d="M40.4023 61.5374C40.9848 61.5374 41.457 61.0652 41.457 60.4827C41.457 59.9002 40.9848 59.428 40.4023 59.428C39.8199 59.428 39.3477 59.9002 39.3477 60.4827C39.3477 61.0652 39.8199 61.5374 40.4023 61.5374Z" fill="white"/>
<path d="M37.5898 61.5374C38.1723 61.5374 38.6445 61.0652 38.6445 60.4827C38.6445 59.9002 38.1723 59.428 37.5898 59.428C37.0074 59.428 36.5352 59.9002 36.5352 60.4827C36.5352 61.0652 37.0074 61.5374 37.5898 61.5374Z" fill="white"/>
<path d="M8.13291 57.8992C4.53009 56.4626 2.10938 52.9069 2.10938 49.0512C2.10938 43.8014 6.38044 39.5304 11.6302 39.5304H11.973C12.2777 39.5304 12.5677 39.3985 12.7679 39.1688C12.9682 38.939 13.0593 38.6339 13.0177 38.332C12.9495 37.8351 12.9149 37.342 12.9149 36.8662C12.9149 30.9826 17.7016 26.1959 23.5852 26.1959C24.1705 26.1959 24.7468 26.2429 25.3125 26.335V33.7879C25.3125 34.6022 25.9748 35.2645 26.7891 35.2645H31.0078C31.822 35.2645 32.4844 34.6022 32.4844 33.7879V22.9289C34.353 20.8111 36.7931 19.268 39.5156 18.4908V26.439H38.5064C37.9304 26.439 37.4192 26.7623 37.1724 27.2826C36.9255 27.8029 36.9984 28.4034 37.3627 28.8495L41.958 34.4766C42.2395 34.8215 42.6565 35.0194 43.1017 35.0194C43.5469 35.0194 43.9639 34.8215 44.2454 34.4767L48.8408 28.8495C49.205 28.4034 49.2778 27.8029 49.031 27.2826C48.7842 26.7623 48.2729 26.439 47.697 26.439H46.6875V18.2489C50.8667 19.1426 54.5126 21.8153 56.6058 25.6649C56.8839 26.1766 57.5238 26.366 58.0362 26.0876C58.548 25.8093 58.7371 25.1689 58.4589 24.6573C55.9946 20.1251 51.6458 17.0214 46.6875 16.0987V6.64746C46.6875 5.83324 46.0252 5.1709 45.2109 5.1709H40.9922C40.178 5.1709 39.5156 5.83324 39.5156 6.64746V16.3095C36.9003 16.9568 34.4936 18.216 32.4844 19.9641V13.9962H33.4936C34.0696 13.9962 34.5808 13.6729 34.8276 13.1526C35.0745 12.6323 35.0016 12.0319 34.6373 11.5858L30.042 5.95868C29.7605 5.61373 29.3435 5.41587 28.8983 5.41587C28.4531 5.41587 28.0361 5.61373 27.7546 5.95854L23.1593 11.5858C22.795 12.0319 22.7222 12.6323 22.969 13.1526C23.2158 13.6729 23.7271 13.9962 24.303 13.9962H25.3125V24.2076C24.7407 24.1281 24.1635 24.0866 23.5852 24.0866C16.5385 24.0866 10.8055 29.8197 10.8055 36.8664C10.8055 37.0587 10.8101 37.2531 10.8195 37.449C4.78322 37.8665 0 42.9109 0 49.0512C0 51.418 0.714656 53.6993 2.06677 55.6489C3.38527 57.5501 5.21283 59.0057 7.35173 59.8586C7.47984 59.9096 7.61203 59.9338 7.74197 59.9338C8.16089 59.9338 8.55731 59.6824 8.72198 59.2695C8.93784 58.7285 8.67403 58.1149 8.13291 57.8992ZM40.1484 28.5485C40.9627 28.5485 41.625 27.8862 41.625 27.072V7.28027H44.5781V27.072C44.5781 27.8862 45.2405 28.5485 46.0547 28.5485H46.3629L43.1016 32.5423L39.8402 28.5485H40.1484ZM28.8984 7.89312L32.1598 11.8869H31.8516C31.0373 11.8869 30.375 12.5492 30.375 13.3634V33.1551H27.4219V13.3634C27.4219 12.5492 26.7595 11.8869 25.9453 11.8869H25.6371L28.8984 7.89312Z" fill="white"/>
</g>
<defs>
<clipPath id="clip0">
<rect width="72" height="72" fill="white"/>
</clipPath>
</defs>
</svg>
