<svg width="80" height="56" viewBox="0 0 80 56" fill="none" xmlns="http://www.w3.org/2000/svg">
<path d="M28.9121 17.5983L28.9263 21.6553C28.9321 23.283 30.2582 24.6033 31.8848 24.6033H31.9034C32.164 24.6056 32.3943 24.7709 32.4782 25.0169C32.7201 25.7256 33.0123 26.4244 33.3468 27.0938C33.4632 27.327 33.4167 27.6094 33.2312 27.7962C32.079 28.9562 32.0853 30.8278 33.2457 31.98L36.1245 34.8388C37.2818 35.9881 39.1585 35.9817 40.3082 34.8242C40.4942 34.6372 40.776 34.5889 41.0096 34.7034C41.6814 35.0331 42.3823 35.3203 43.0926 35.5572C43.3417 35.6402 43.5095 35.873 43.5104 36.1375C43.5162 37.7652 44.8423 39.0855 46.4689 39.0855H46.4793L50.5364 39.0712C51.3267 39.0684 52.0684 38.7581 52.6251 38.1975C53.182 37.6367 53.4871 36.8927 53.4843 36.1017C53.4834 35.8381 53.6496 35.6042 53.8979 35.5194C54.6067 35.2775 55.3056 34.9853 55.9749 34.6509C56.2074 34.5344 56.4903 34.5811 56.6771 34.7669C57.8346 35.9161 59.711 35.9098 60.861 34.7522L63.7198 31.8733C64.869 30.7158 64.8625 28.8391 63.705 27.6895C63.5181 27.5039 63.4695 27.222 63.5845 26.988C63.9142 26.3158 64.2014 25.615 64.4382 24.905C64.5212 24.6561 64.754 24.4883 65.0184 24.4873C65.8087 24.4845 66.5504 24.1742 67.1071 23.6134C67.664 23.0527 67.9692 22.3086 67.9664 21.5184L67.9521 17.4614C67.9493 16.6712 67.6392 15.9294 67.0784 15.3727C66.5201 14.8183 65.7803 14.5134 64.9932 14.5134C64.9892 14.5134 64.9848 14.5131 64.9806 14.5134C64.7178 14.5134 64.4848 14.3475 64.4003 14.0997C64.1581 13.39 63.8659 12.6912 63.5318 12.0228C63.4154 11.7898 63.462 11.5077 63.6475 11.3206C64.7998 10.1603 64.7934 8.28922 63.6329 7.13672L60.7542 4.27797C59.5949 3.12703 57.7224 3.13234 56.5703 4.29266C56.3846 4.47953 56.1029 4.52812 55.869 4.41328C55.1978 4.08391 54.497 3.79656 53.7859 3.55953C53.537 3.47656 53.369 3.24359 53.3681 2.97953C53.3624 1.34969 52.042 0.03125 50.4099 0.03125C50.4065 0.03125 50.4029 0.03125 50.3995 0.03125L46.3424 0.0454693C44.7113 0.0510943 43.3887 1.375 43.3945 3.015C43.3954 3.27859 43.2292 3.5125 42.9809 3.59734C42.2715 3.83937 41.5728 4.13156 40.9039 4.46578C40.6709 4.58219 40.3884 4.53547 40.2017 4.35C39.0442 3.20047 37.1676 3.20703 36.0179 4.36453L33.159 7.24328C32.0098 8.40078 32.0163 10.2777 33.1737 11.427C33.3607 11.6127 33.4093 11.8945 33.2943 12.1286C32.9648 12.8003 32.6776 13.5011 32.4404 14.2116C32.3574 14.4605 32.1246 14.6284 31.8604 14.6294C30.2292 14.6352 28.9067 15.9669 28.9121 17.5983ZM31.8693 16.9733C33.1393 16.9688 34.2623 16.1569 34.6637 14.9533C34.8678 14.342 35.1148 13.7391 35.3982 13.1612C35.9563 12.0242 35.7262 10.6589 34.8251 9.76406C34.5845 9.52531 34.5832 9.13531 34.8218 8.89484L37.6806 6.01625C37.9196 5.77547 38.3093 5.77437 38.5499 6.01312C39.451 6.90797 40.8176 7.12875 41.9512 6.5625C42.5265 6.27516 43.1274 6.02375 43.7376 5.81562C44.9389 5.40578 45.7428 4.27703 45.7382 3.00609C45.737 2.66734 46.0103 2.39047 46.3507 2.38938L50.4076 2.375H50.4098C50.7459 2.375 51.0231 2.64563 51.0245 2.98844C51.029 4.25859 51.841 5.38156 53.0446 5.78297C53.6564 5.98703 54.2592 6.23406 54.8365 6.51734C55.9737 7.07563 57.339 6.845 58.2337 5.94422C58.4728 5.70344 58.8618 5.70187 59.1028 5.94109L61.9817 8.79984C62.2223 9.03891 62.2246 9.42735 61.9846 9.66906C61.09 10.5702 60.8692 11.9369 61.4353 13.0702C61.7226 13.6452 61.9739 14.2462 62.1821 14.8567C62.5907 16.0545 63.7145 16.8573 64.981 16.8573C64.9853 16.8573 64.9892 16.8572 64.9937 16.8573C65.1571 16.8573 65.3109 16.9206 65.4268 17.0359C65.5432 17.1516 65.6076 17.3056 65.6082 17.4697V17.4698L65.6225 21.5269C65.6231 21.6909 65.5596 21.8456 65.4439 21.9622C65.3281 22.0788 65.174 22.1431 65.0093 22.1438C63.7392 22.1481 62.616 22.96 62.2145 24.1639C62.0109 24.7747 61.7637 25.3777 61.4803 25.9556C60.922 27.0928 61.1523 28.4581 62.0534 29.3528C62.2939 29.5916 62.2953 29.9816 62.0565 30.222L59.1979 33.1008C58.9592 33.3412 58.5693 33.3428 58.3287 33.1039C57.4279 32.2092 56.061 31.9883 54.9274 32.5544C54.3517 32.842 53.7506 33.0933 53.1409 33.3014C51.9396 33.7112 51.1357 34.84 51.1403 36.1109C51.1409 36.275 51.0774 36.4295 50.9617 36.5461C50.8459 36.6627 50.6918 36.727 50.5278 36.7277L46.4707 36.7419C46.4699 36.7419 46.4693 36.7419 46.4685 36.7419C46.1306 36.7419 45.8549 36.4675 45.8537 36.1287C45.8495 34.8586 45.0376 33.7355 43.8335 33.3339C43.2224 33.1302 42.6195 32.883 42.0418 32.5994C40.9009 32.0397 39.5365 32.2745 38.6448 33.1725C38.4057 33.4131 38.016 33.4144 37.7754 33.1756L34.8967 30.3169C34.656 30.0783 34.6537 29.6894 34.8937 29.4477C35.7882 28.5467 36.009 27.1802 35.4431 26.0464C35.1553 25.4705 34.904 24.8694 34.6962 24.2598C34.2876 23.062 33.1638 22.2592 31.8979 22.2592C31.8917 22.2592 31.8857 22.2592 31.8793 22.2592C31.5438 22.2563 31.271 21.983 31.2699 21.6467L31.2557 17.5898C31.2546 17.2512 31.5295 16.9744 31.8693 16.9733Z" fill="white"/>
<path d="M55.1279 26.2002C58.7984 22.5039 58.7784 16.5414 55.0814 12.8702C51.3931 9.20767 45.4131 9.22876 41.7511 12.9167C38.0889 16.6048 38.1098 22.5847 41.7979 26.2469C45.4906 29.9139 51.457 29.8972 55.1279 26.2002ZM43.4142 14.5681C46.1661 11.797 50.6592 11.7816 53.43 14.5331C56.2075 17.2911 56.2234 21.7709 53.465 24.5488C50.71 27.3233 46.2271 27.3422 43.4495 24.5839C40.6784 21.8322 40.6626 17.3392 43.4142 14.5681Z" fill="white"/>
<path d="M71.8628 24.2286C71.3123 23.8879 70.5902 24.0581 70.2497 24.6086C69.9092 25.159 70.0792 25.8812 70.6297 26.2217C75.0294 28.9439 77.6562 33.6536 77.6562 38.8201C77.6562 46.9836 71.0148 53.6248 62.8514 53.6248H19.7098C10.1341 53.625 2.34375 45.8345 2.34375 36.2589C2.34375 27.8897 8.20203 21.1273 15.7066 19.3572C16.0703 19.2714 16.3713 19.0173 16.5169 18.6733C18.6956 13.5234 23.385 9.61123 29.17 8.58951C29.8073 8.47701 30.2328 7.86904 30.1202 7.2317C30.0077 6.59435 29.4003 6.1692 28.7623 6.28138C22.2634 7.4292 17.115 11.7383 14.5964 17.2203C6.04516 19.5165 0 27.2973 0 36.2589C0 47.1269 8.84172 55.9687 19.7098 55.9687H62.8514C72.3072 55.9687 80 48.2759 80 38.8201C80 32.8358 76.958 27.3811 71.8628 24.2286Z" fill="white"/>
</svg>
