<svg width="70" height="70" viewBox="0 0 70 70" fill="none" xmlns="http://www.w3.org/2000/svg">
<path d="M67.1758 9.70508H64.5825C64.0162 9.70508 63.5571 10.164 63.5571 10.7305C63.5571 11.2969 64.0162 11.7559 64.5825 11.7559H67.1758C67.6022 11.7559 67.9492 12.1026 67.9492 12.5289V17.9066H64.3677C63.8014 17.9066 63.3423 18.3655 63.3423 18.9319C63.3423 19.4984 63.8014 19.9573 64.3677 19.9573H67.9492V49.346H60.1904C59.6241 49.346 59.165 49.8049 59.165 50.3714C59.165 50.9378 59.6241 51.3968 60.1904 51.3968H67.9492V56.7745C67.9492 57.2007 67.6022 57.5475 67.1758 57.5475H2.8242C2.39777 57.5475 2.05078 57.2007 2.05078 56.7745V51.3968H55.4727C56.039 51.3968 56.4981 50.9378 56.4981 50.3714C56.4981 49.8049 56.039 49.346 55.4727 49.346H2.05078V19.9575H5.60547C6.17176 19.9575 6.63086 19.4985 6.63086 18.9321C6.63086 18.3657 6.17176 17.9067 5.60547 17.9067H2.05078V12.529C2.05078 12.1027 2.39777 11.756 2.8242 11.756H5.60547C6.17176 11.756 6.63086 11.297 6.63086 10.7306C6.63086 10.1642 6.17176 9.70521 5.60547 9.70521H2.8242C1.26697 9.70508 0 10.9719 0 12.529V56.7746C0 58.3317 1.26697 59.5984 2.8242 59.5984H27.4356L26.0523 63.8484H23.18C21.2166 63.8484 19.6193 65.4456 19.6193 67.4087C19.6193 68.8376 20.7818 69.9999 22.2109 69.9999H47.7895C49.2185 69.9999 50.3811 68.8376 50.3811 67.4087C50.3811 65.4456 48.7837 63.8484 46.8204 63.8484H43.9481L42.5648 59.5984H67.1762C68.7334 59.5984 70.0004 58.3315 70.0004 56.7746V12.529C70 10.9719 68.733 9.70508 67.1758 9.70508ZM41.7911 63.8484H35.1251C34.5588 63.8484 34.0997 64.3074 34.0997 64.8738C34.0997 65.4402 34.5588 65.8992 35.1251 65.8992H46.8202C47.6528 65.8992 48.3301 66.5764 48.3301 67.4087C48.3301 67.7068 48.0875 67.9492 47.7892 67.9492H22.2108C21.9126 67.9492 21.6699 67.7068 21.6699 67.4087C21.6699 66.5764 22.3474 65.8992 23.1798 65.8992H30.3931C30.9594 65.8992 31.4185 65.4402 31.4185 64.8738C31.4185 64.3074 30.9594 63.8484 30.3931 63.8484H28.2089L29.5922 59.5984H40.4076L41.7911 63.8484Z" fill="white"/>
<path d="M9.70703 43.1979H17.9524C18.5187 43.1979 18.9778 42.739 18.9778 42.1725C18.9778 41.6061 18.5187 41.1471 17.9524 41.1471H10.7324V2.05078H59.2676V41.1471H22.7932C22.2269 41.1471 21.7678 41.6061 21.7678 42.1725C21.7678 42.739 22.2269 43.1979 22.7932 43.1979H60.293C60.8593 43.1979 61.3184 42.739 61.3184 42.1725V1.02539C61.3184 0.458965 60.8593 0 60.293 0H9.70703C9.14074 0 8.68164 0.458965 8.68164 1.02539V42.1725C8.68164 42.7388 9.14074 43.1979 9.70703 43.1979Z" fill="white"/>
<path d="M18.5767 12.8761C18.7689 13.0685 19.0298 13.1765 19.3017 13.1765C19.5736 13.1765 19.8345 13.0685 20.0267 12.8763L24.3105 8.59245C24.711 8.19187 24.711 7.54272 24.3105 7.14228C23.9101 6.74196 23.2608 6.74196 22.8605 7.14228L19.3017 10.7011L17.8849 9.28425C17.4846 8.88366 16.8353 8.8838 16.4349 9.28411C16.0344 9.6847 16.0344 10.3338 16.4349 10.7342L18.5767 12.8761Z" fill="white"/>
<path d="M30.4214 8.97559H52.8398C53.4061 8.97559 53.8652 8.51662 53.8652 7.95019C53.8652 7.38377 53.4061 6.9248 52.8398 6.9248H30.4214C29.8551 6.9248 29.396 7.38377 29.396 7.95019C29.396 8.51662 29.8551 8.97559 30.4214 8.97559Z" fill="white"/>
<path d="M30.4214 13.093H49.3813C49.9476 13.093 50.4067 12.6341 50.4067 12.0676C50.4067 11.5012 49.9476 11.0422 49.3813 11.0422H30.4214C29.8551 11.0422 29.396 11.5012 29.396 12.0676C29.396 12.6341 29.8551 13.093 30.4214 13.093Z" fill="white"/>
<path d="M16.4348 22.3238L18.5768 24.4657C18.769 24.6581 19.0299 24.7661 19.3018 24.7661C19.5738 24.7661 19.8346 24.6581 20.0269 24.4659L24.3107 20.1821C24.7111 19.7815 24.7111 19.1323 24.3107 18.7319C23.9102 18.3316 23.2609 18.3316 22.8606 18.7319L19.3018 22.2907L17.885 20.8738C17.4847 20.4734 16.8354 20.4733 16.435 20.8737C16.0344 21.2742 16.0344 21.9233 16.4348 22.3238Z" fill="white"/>
<path d="M30.4214 20.5657H52.8398C53.4061 20.5657 53.8652 20.1067 53.8652 19.5403C53.8652 18.9739 53.4061 18.5149 52.8398 18.5149H30.4214C29.8551 18.5149 29.396 18.9739 29.396 19.5403C29.396 20.1067 29.8551 20.5657 30.4214 20.5657Z" fill="white"/>
<path d="M30.4214 24.6831H49.3813C49.9476 24.6831 50.4067 24.2241 50.4067 23.6577C50.4067 23.0913 49.9476 22.6323 49.3813 22.6323H30.4214C29.8551 22.6323 29.396 23.0913 29.396 23.6577C29.396 24.2241 29.8551 24.6831 30.4214 24.6831Z" fill="white"/>
<path d="M16.4348 33.9141L18.5768 36.056C18.769 36.2484 19.0299 36.3564 19.3018 36.3564C19.5738 36.3564 19.8346 36.2484 20.0269 36.0562L24.3107 31.7724C24.7111 31.3718 24.7111 30.7227 24.3107 30.3222C23.9102 29.9219 23.2609 29.9219 22.8606 30.3222L19.3018 33.881L17.885 32.4642C17.4847 32.0637 16.8354 32.0636 16.435 32.464C16.0344 32.8645 16.0344 33.5136 16.4348 33.9141Z" fill="white"/>
<path d="M30.4214 32.1555H52.8398C53.4061 32.1555 53.8652 31.6966 53.8652 31.1301C53.8652 30.5637 53.4061 30.1047 52.8398 30.1047H30.4214C29.8551 30.1047 29.396 30.5637 29.396 31.1301C29.396 31.6966 29.8551 32.1555 30.4214 32.1555Z" fill="white"/>
<path d="M30.4214 36.2729H49.3813C49.9476 36.2729 50.4067 35.814 50.4067 35.2476C50.4067 34.6811 49.9476 34.2222 49.3813 34.2222H30.4214C29.8551 34.2222 29.396 34.6811 29.396 35.2476C29.396 35.814 29.8551 36.2729 30.4214 36.2729Z" fill="white"/>
</svg>
