<svg width="78" height="78" viewBox="0 0 78 78" fill="none" xmlns="http://www.w3.org/2000/svg">
<path d="M39.6157 8.44507H52.5427C53.1738 8.44507 53.6853 7.93365 53.6853 7.30249C53.6853 6.67133 53.1738 6.15991 52.5427 6.15991H39.6157C38.9846 6.15991 38.4731 6.67133 38.4731 7.30249C38.4731 7.93365 38.9846 8.44507 39.6157 8.44507Z" fill="white"/>
<path d="M32.5364 8.44507H34.0754C34.7065 8.44507 35.2179 7.93365 35.2179 7.30249C35.2179 6.67133 34.7065 6.15991 34.0754 6.15991H32.5364C31.9052 6.15991 31.3938 6.67133 31.3938 7.30249C31.3938 7.93365 31.9054 8.44507 32.5364 8.44507Z" fill="white"/>
<path d="M25.4575 8.44507H26.9965C27.6277 8.44507 28.1391 7.93365 28.1391 7.30249C28.1391 6.67133 27.6277 6.15991 26.9965 6.15991H25.4575C24.8264 6.15991 24.3149 6.67133 24.3149 7.30249C24.3149 7.93365 24.8265 8.44507 25.4575 8.44507Z" fill="white"/>
<path d="M39.6157 18.4714C38.9846 18.4714 38.4731 18.9829 38.4731 19.614C38.4731 20.2452 38.9846 20.7566 39.6157 20.7566H52.5427C53.1738 20.7566 53.6853 20.2452 53.6853 19.614C53.6853 18.9829 53.1738 18.4714 52.5427 18.4714H39.6157Z" fill="white"/>
<path d="M32.5364 18.4714C31.9052 18.4714 31.3938 18.9829 31.3938 19.614C31.3938 20.2452 31.9052 20.7566 32.5364 20.7566H34.0754C34.7065 20.7566 35.2179 20.2452 35.2179 19.614C35.2179 18.9829 34.7065 18.4714 34.0754 18.4714H32.5364Z" fill="white"/>
<path d="M25.4575 18.4714C24.8264 18.4714 24.3149 18.9829 24.3149 19.614C24.3149 20.2452 24.8264 20.7566 25.4575 20.7566H26.9965C27.6277 20.7566 28.1391 20.2452 28.1391 19.614C28.1391 18.9829 27.6277 18.4714 26.9965 18.4714H25.4575Z" fill="white"/>
<path d="M63.9809 52.0953C63.4722 51.9822 62.9698 51.8258 62.4878 51.6306C62.2297 51.5261 61.9421 51.5194 61.6794 51.6119C60.3287 52.0873 58.9115 52.3285 57.4671 52.3285C54.5615 52.3285 51.7213 51.3221 49.4701 49.4943C49.0731 49.1721 48.5098 49.1526 48.0916 49.4477C46.5745 50.5174 44.9143 51.2979 43.1447 51.7772C42.4971 50.1197 40.884 48.942 39 48.942C37.116 48.942 35.5029 50.1198 34.8553 51.7772C33.0857 51.2979 31.4255 50.5176 29.9084 49.4477C29.4901 49.1524 28.927 49.1719 28.5299 49.4943C26.2787 51.322 23.4385 52.3285 20.5329 52.3285C19.0885 52.3285 17.6713 52.0873 16.3206 51.6119C16.0583 51.5196 15.7712 51.5261 15.5133 51.6302C14.366 52.0936 13.1552 52.3285 11.9148 52.3285C6.60502 52.3285 2.28516 48.008 2.28516 42.6973C2.28516 38.4594 5.00114 34.7646 9.04358 33.5032C9.30805 33.4208 9.53352 33.2452 9.67794 33.0089C9.82328 32.7712 9.9773 32.5368 10.1359 32.3116C10.4992 31.7956 10.3752 31.0829 9.85938 30.7196C9.34324 30.3563 8.63073 30.4804 8.26739 30.9961C8.16151 31.1466 8.05716 31.3008 7.95554 31.4568C3.17911 33.1336 0 37.5976 0 42.6973C0 49.2681 5.34498 54.6137 11.9148 54.6137C13.3057 54.6137 14.6664 54.3749 15.9665 53.9033C17.4388 54.3749 18.9729 54.6137 20.533 54.6137C23.6767 54.6137 26.7552 53.615 29.2934 51.7865C30.9378 52.8367 32.7176 53.6029 34.6037 54.0736C34.933 56.204 36.7791 57.8401 39.0002 57.8401C41.2212 57.8401 43.0673 56.204 43.3966 54.0736C45.2825 53.6029 47.0625 52.8367 48.7069 51.7865C51.2451 53.615 54.3237 54.6137 57.4673 54.6137C59.0271 54.6137 60.5614 54.3749 62.0336 53.9034C62.5074 54.0751 62.9941 54.2168 63.4853 54.3259C64.1011 54.4625 64.7117 54.0744 64.8485 53.4584C64.9851 52.8424 64.5969 52.2321 63.9809 52.0953ZM39 55.5548C37.8068 55.5548 36.8363 54.5843 36.8363 53.3911C36.8363 52.1979 37.8068 51.2272 39 51.2272C40.1932 51.2272 41.1637 52.1979 41.1637 53.3911C41.1637 54.5843 40.1932 55.5548 39 55.5548Z" fill="white"/>
<path d="M70.0452 31.4571C67.4724 27.4928 63.2822 25.0202 58.6098 24.6719V20.8665C58.6098 20.2353 58.0984 19.7239 57.4673 19.7239C56.8361 19.7239 56.3247 20.2353 56.3247 20.8665V24.6273H21.6756V14.6009H56.3247V15.5343C56.3247 16.1655 56.8361 16.6769 57.4673 16.6769C58.0984 16.6769 58.6098 16.1655 58.6098 15.5343V1.14697C58.6098 0.515812 58.0984 0.00439453 57.4673 0.00439453H20.533C19.9019 0.00439453 19.3905 0.515812 19.3905 1.14697V24.6717C16.9042 24.8599 14.5127 25.6595 12.4146 27.0149C11.8846 27.3573 11.7323 28.0646 12.0749 28.5946C12.2935 28.9331 12.6608 29.1174 13.0357 29.1174C13.2481 29.1174 13.4631 29.0582 13.6546 28.9345C15.3823 27.8186 17.346 27.1485 19.3905 26.9659V34.8742C15.9071 35.4243 13.2349 38.4467 13.2349 42.0823C13.2349 42.7135 13.7463 43.2249 14.3774 43.2249C15.0086 43.2249 15.52 42.7135 15.52 42.0823C15.52 39.3181 17.7689 37.0693 20.533 37.0693C21.5391 37.0693 22.5092 37.3659 23.3384 37.9272C23.8523 38.275 24.55 38.1488 24.9099 37.6431C25.8506 36.3201 27.3786 35.5305 28.9971 35.5305C30.2689 35.5305 31.482 36.0086 32.4133 36.8765C32.6954 37.1394 33.0916 37.2425 33.4652 37.1501C33.8397 37.058 34.1424 36.7832 34.2702 36.4194C34.9745 34.4149 36.8753 33.0682 39 33.0682C41.1247 33.0682 43.0255 34.4149 43.7298 36.4194C43.8576 36.7832 44.1603 37.0579 44.5348 37.1501C44.9086 37.2424 45.3047 37.1394 45.5867 36.8765C46.518 36.0086 47.7311 35.5305 49.0029 35.5305C50.6214 35.5305 52.1494 36.3202 53.0901 37.6431C53.45 38.149 54.1478 38.2747 54.6615 37.9272C55.4907 37.3659 56.461 37.0693 57.4669 37.0693C60.2312 37.0693 62.48 39.3182 62.48 42.0823C62.48 42.7135 62.9914 43.2249 63.6226 43.2249C64.2537 43.2249 64.7651 42.7135 64.7651 42.0823C64.7651 38.4467 62.0929 35.4243 58.6095 34.8742V26.9644C62.618 27.3178 66.1912 29.5201 68.3214 33.0083C68.4659 33.2449 68.6915 33.4208 68.9563 33.5034C72.999 34.7645 75.715 38.4593 75.715 42.6972C75.715 46.989 72.8352 50.8005 68.7117 51.9663C68.1045 52.1378 67.7514 52.7693 67.9231 53.3765C68.0653 53.8798 68.5234 54.2086 69.0219 54.2086C69.1249 54.2086 69.2294 54.1946 69.3333 54.1652C74.4362 52.7228 78.0001 48.007 78.0001 42.6974C78.0001 37.5978 74.8212 33.134 70.0452 31.4571ZM56.3247 2.28955V12.3153H21.6756V2.28955H56.3247ZM54.2868 35.5116C52.9187 34.0773 51.0089 33.245 49.003 33.245C47.6618 33.245 46.3654 33.6101 45.2373 34.2913C43.9324 32.146 41.5795 30.7827 39.0001 30.7827C36.4208 30.7827 34.0679 32.146 32.763 34.2913C31.6351 33.6099 30.3385 33.245 28.9973 33.245C26.9913 33.245 25.0817 34.0773 23.7135 35.5116C23.0694 35.1992 22.3836 34.9863 21.6756 34.875V26.9129H56.3247V34.875C55.6167 34.9863 54.9309 35.1992 54.2868 35.5116Z" fill="white"/>
<path d="M42.5839 62.9107C43.0301 62.4645 43.0301 61.741 42.5837 61.2949C42.1377 60.8488 41.4142 60.8487 40.968 61.2951C40.4424 61.8206 39.7436 62.1103 39.0002 62.1103C38.2567 62.1103 37.5579 61.8208 37.0323 61.2951C36.5861 60.8489 35.8626 60.8487 35.4166 61.2949C34.9702 61.7411 34.9702 62.4646 35.4164 62.9107C36.3736 63.868 37.6464 64.3953 39.0002 64.3953C40.3539 64.3953 41.6267 63.868 42.5839 62.9107Z" fill="white"/>
<path d="M30.6047 66.1066C30.1584 66.5528 30.1584 67.2763 30.6048 67.7223C32.9192 70.0367 35.9597 71.1941 39 71.1941C42.0403 71.1941 45.0808 70.0367 47.3952 67.7223C47.8416 67.2761 47.8416 66.5526 47.3954 66.1066C46.949 65.6602 46.2255 65.6604 45.7796 66.1064C42.0413 69.8445 35.9588 69.8445 32.2204 66.1064C31.7744 65.6604 31.0509 65.6602 30.6047 66.1066Z" fill="white"/>
<path d="M50.5909 70.9179C44.1996 77.3092 33.8003 77.3092 27.4091 70.9179C26.9627 70.4719 26.2394 70.4719 25.7932 70.9179C25.3469 71.3643 25.3469 72.0876 25.7932 72.5338C29.4343 76.1749 34.2172 77.9955 39 77.9955C43.7828 77.9955 48.5656 76.175 52.2068 72.5338C52.653 72.0875 52.653 71.3641 52.2068 70.9179C51.7606 70.4719 51.0373 70.4719 50.5909 70.9179Z" fill="white"/>
</svg>
