<svg width="72" height="64" viewBox="0 0 72 64" fill="none" xmlns="http://www.w3.org/2000/svg">
<path d="M35.5082 27.4659H25.1909C24.6083 27.4659 24.1362 27.938 24.1362 28.5206C24.1362 29.1032 24.6083 29.5753 25.1909 29.5753H35.5082C36.0908 29.5753 36.5628 29.1032 36.5628 28.5206C36.5628 27.938 36.0906 27.4659 35.5082 27.4659Z" fill="white"/>
<path d="M35.5082 31.6775H25.1909C24.6083 31.6775 24.1362 32.1496 24.1362 32.7322C24.1362 33.3148 24.6083 33.7869 25.1909 33.7869H35.5082C36.0908 33.7869 36.5628 33.3148 36.5628 32.7322C36.5628 32.1496 36.0906 31.6775 35.5082 31.6775Z" fill="white"/>
<path d="M42.8062 22.9996C42.6083 22.8019 42.3402 22.6908 42.0603 22.6908H22.9903C21.2852 22.6908 19.8979 24.0781 19.8979 25.7831V59.9635C19.8979 61.6685 21.2852 63.0558 22.9903 63.0558H49.0092C50.7142 63.0558 52.1015 61.6685 52.1015 59.9635V32.7321C52.1015 32.4524 51.9904 32.1842 51.7927 31.9862L42.8062 22.9996ZM43.1152 26.2916L48.5008 31.6774H43.6C43.3327 31.6774 43.1152 31.4599 43.1152 31.1924V26.2916ZM49.0093 60.9464H22.9903C22.4483 60.9464 22.0073 60.5054 22.0073 59.9635V25.7831C22.0073 25.2412 22.4483 24.8002 22.9903 24.8002H41.0056V31.1924C41.0056 32.623 42.1693 33.7868 43.5999 33.7868H49.9921V59.9635C49.9923 60.5054 49.5513 60.9464 49.0093 60.9464Z" fill="white"/>
<path d="M62.0439 27.6541C61.7903 24.0011 60.2421 20.5997 57.6262 17.9916C54.96 15.3337 51.4727 13.7871 47.7385 13.5909C44.791 5.99633 37.4538 0.944092 29.2537 0.944092C18.5626 0.944092 9.81759 9.45514 9.44184 20.0576C6.77686 21.2647 4.50028 23.1683 2.82825 25.5961C0.978047 28.2822 0 31.4322 0 34.7055C0 43.5702 7.21195 50.7822 16.0767 50.7822C16.6593 50.7822 17.1314 50.3101 17.1314 49.7275C17.1314 49.1449 16.6593 48.6728 16.0767 48.6728C8.3752 48.6728 2.10938 42.4071 2.10938 34.7055C2.10938 28.9659 5.55089 23.8757 10.8769 21.7379C11.2766 21.5774 11.5384 21.1902 11.5387 20.7597C11.5435 10.9964 19.4905 3.05347 29.2538 3.05347C36.8011 3.05347 43.5302 7.84217 45.9982 14.9695C46.1445 15.3925 46.5421 15.677 46.9898 15.6791C50.4427 15.6952 53.6912 17.0471 56.1371 19.4854C58.5824 21.9232 59.9439 25.1665 59.9712 28.6178C59.9756 29.1722 60.4086 29.6286 60.9622 29.6623C65.9686 29.9657 69.8906 34.1369 69.8906 39.1587C69.8906 44.4048 65.6225 48.6728 60.3765 48.6728H55.9545C55.3719 48.6728 54.8999 49.1449 54.8999 49.7275C54.8999 50.3101 55.3719 50.7822 55.9545 50.7822H60.3765C66.7858 50.7822 72 45.5679 72 39.1587C72 33.3465 67.6988 28.4667 62.0439 27.6541Z" fill="white"/>
</svg>
