<svg width="150" height="33" viewBox="0 0 150 33" fill="none" xmlns="http://www.w3.org/2000/svg">
<g clip-path="url(#clip0)">
<path d="M58.826 22.2428C58.826 24.1671 58.3425 25.8743 57.3653 27.3745C56.3985 28.8643 54.9893 30.0334 53.1583 30.8611C51.3274 31.6888 49.1776 32.1027 46.7193 32.1027C44.662 32.1027 42.9443 31.9578 41.5454 31.6681C40.1464 31.3785 38.7064 30.8715 37.1943 30.1473V22.667C38.7887 23.4843 40.4345 24.1258 42.1522 24.5913C43.87 25.0466 45.4438 25.2845 46.8838 25.2845C48.1182 25.2845 49.0336 25.0673 49.6096 24.6327C50.1857 24.1982 50.4737 23.6498 50.4737 22.967C50.4737 22.5428 50.3605 22.1703 50.1239 21.8496C49.8874 21.5289 49.5171 21.2081 49.0028 20.8874C48.4885 20.5667 47.1204 19.8942 44.8986 18.8906C42.8825 17.9698 41.3705 17.08 40.3727 16.2109C39.3647 15.3522 38.6241 14.359 38.1304 13.2416C37.6469 12.1242 37.4001 10.7999 37.4001 9.26862C37.4001 6.41307 38.439 4.1783 40.5065 2.57464C42.574 0.970975 45.4232 0.174316 49.0336 0.174316C52.2326 0.174316 55.4933 0.919243 58.8157 2.4091L56.2647 8.88582C53.3743 7.55116 50.8851 6.889 48.7867 6.889C47.7067 6.889 46.9147 7.07523 46.421 7.45804C45.9272 7.84085 45.6804 8.31678 45.6804 8.88582C45.6804 9.49624 45.9889 10.0446 46.6164 10.5205C47.2438 11.0068 48.941 11.8759 51.7183 13.1588C54.3824 14.359 56.2236 15.6522 57.2625 17.0386C58.3117 18.4043 58.826 20.1425 58.826 22.2428Z" fill="#1F4C9C"/>
<path d="M87.2567 0.619385V19.315C87.2567 23.381 86.115 26.5263 83.8212 28.761C81.5377 30.9958 78.2358 32.1029 73.926 32.1029C69.719 32.1029 66.4788 31.0165 64.2262 28.8542C61.9633 26.6918 60.8318 23.5673 60.8318 19.5115V0.619385H69.2149V18.8494C69.2149 21.0428 69.6264 22.6361 70.439 23.6293C71.2516 24.6226 72.4551 25.1192 74.0494 25.1192C75.7569 25.1192 76.9912 24.6226 77.7524 23.6397C78.5239 22.6568 78.9044 21.0428 78.9044 18.808V0.619385H87.2567Z" fill="#1F4C9C"/>
<path d="M117.354 15.4869C117.354 20.6703 115.934 24.6639 113.096 27.4678C110.257 30.2716 106.276 31.6683 101.133 31.6683H91.145V0.619385H101.832C106.79 0.619385 110.617 1.89197 113.312 4.44748C116.006 6.99264 117.354 10.6655 117.354 15.4869ZM108.693 15.7869C108.693 12.9417 108.138 10.8311 107.016 9.45504C105.895 8.079 104.198 7.39614 101.915 7.39614H99.487V24.7881H101.349C103.879 24.7881 105.741 24.0432 106.924 22.5637C108.096 21.0842 108.693 18.8287 108.693 15.7869Z" fill="#1F4C9C"/>
<path d="M149.179 16.0973C149.179 21.3222 147.904 25.2951 145.353 28.0161C142.802 30.7372 139.078 32.0926 134.161 32.0926C129.317 32.0926 125.603 30.7269 123.022 27.9955C120.44 25.2641 119.144 21.2808 119.144 16.0559C119.144 10.8828 120.43 6.94095 123.001 4.20955C125.573 1.4885 129.306 0.122803 134.203 0.122803C139.119 0.122803 142.843 1.47816 145.373 4.17851C147.914 6.88922 149.179 10.8622 149.179 16.0973ZM127.928 16.0973C127.928 22.0981 130.006 25.0985 134.161 25.0985C136.27 25.0985 137.844 24.3743 138.862 22.9155C139.881 21.4567 140.395 19.1805 140.395 16.0973C140.395 12.9935 139.881 10.707 138.842 9.22746C137.803 7.74795 136.26 7.00302 134.203 7.00302C130.026 7.01337 127.928 10.0448 127.928 16.0973Z" fill="#1F4C9C"/>
<path d="M22.8557 15.0525H34.2835V20.805C34.2835 27.3541 30.9508 31.0994 24.2854 32.0203C22.9174 32.2168 21.0042 32.3099 18.5664 32.3099H0V20.805H18.5767C20.3253 20.805 21.4876 20.4222 22.0637 19.6565C22.5985 18.9323 22.866 17.8977 22.866 16.5527V15.0525H22.8557Z" fill="#009FE3"/>
<path d="M11.4278 17.9288H0V12.1764C0 5.62722 3.33269 1.88189 9.99807 0.961082C11.3661 0.774851 13.2793 0.671387 15.7171 0.671387H34.2938V12.1764H15.7171C13.9685 12.1764 12.8062 12.5592 12.2302 13.3248C11.6953 14.049 11.4278 15.0836 11.4278 16.4286V17.9288Z" fill="#1F4C9C"/>
</g>
<defs>
<clipPath id="clip0">
<rect width="149.179" height="32.187" fill="white" transform="translate(0 0.122803)"/>
</clipPath>
</defs>
</svg>
